<svg version="1.1" viewBox="0.0 0.0 886.9842519685039 100.0" fill="none" stroke="none" stroke-linecap="square" stroke-miterlimit="10" xmlns:xlink="http://www.w3.org/1999/xlink" xmlns="http://www.w3.org/2000/svg"><clipPath id="p.0"><path d="m0 0l886.98425 0l0 100.0l-886.98425 0l0 -100.0z" clip-rule="nonzero"/></clipPath><g clip-path="url(#p.0)"><path fill="#000000" fill-opacity="0.0" d="m0 0l886.98425 0l0 100.0l-886.98425 0z" fill-rule="evenodd"/><path fill="#000000" fill-opacity="0.0" d="m-5.6430445 0l1233.6693 0l0 103.43307l-1233.6693 0z" fill-rule="evenodd"/><path fill="#4a86e8" d="m12.310081 19.281868l53.71875 0l0 11.21875l-40.921875 0l0 12.59375l36.25 0l0 10.53125l-36.25 0l0 17.5625l41.78125 0l0 11.171875l-54.578125 0l0 -63.078125zm68.69446 0l12.796875 0l39.312492 20.578125l0 -20.578125l12.796875 0l0 63.078125l-12.796875 0l0 -28.9375l-39.312492 -20.46875l0 49.40625l-12.796875 0l0 -63.078125zm82.73437 0l53.71875 0l0 11.21875l-40.921875 0l0 12.59375l36.25 0l0 10.53125l-36.25 0l0 17.5625l41.78125 0l0 11.171875l-54.578125 0l0 -63.078125zm68.77258 0l32.093765 0q7.265625 0 12.59375 1.515625q5.328125 1.5 8.828125 4.375q3.515625 2.859375 5.234375 6.984375q1.71875 4.109375 1.71875 9.3125q0 3.515625 -0.859375 6.6875q-0.84375 3.171875 -2.59375 5.84375q-1.75 2.65625 -4.421875 4.734375q-2.65625 2.078125 -6.25 3.4375l13.71875 20.1875l-15.65625 0l-11.875 -17.921875l-0.359375 0l-19.375015 -0.03125l0 17.953125l-12.796875 0l0 -63.078125zm32.42189 34.0625q3.625 0 6.34375 -0.84375q2.734375 -0.859375 4.5625 -2.390625q1.84375 -1.53125 2.75 -3.734375q0.90625 -2.203125 0.90625 -4.90625q0 -5.28125 -3.640625 -8.15625q-3.625 -2.890625 -10.921875 -2.890625l-19.625015 0l0 22.921875l19.625015 0zm38.858948 -3.109375q0 -6.65625 2.5 -12.453125q2.5 -5.796875 7.296875 -10.0625q4.8125 -4.28125 11.8125 -6.734375q7.0 -2.46875 16.046875 -2.46875q3.265625 0 6.546875 0.34375q3.296875 0.34375 6.5 1.078125q3.21875 0.71875 6.265625 1.828125q3.046875 1.109375 5.796875 2.640625l-5.890625 9.6875q-1.65625 -0.96875 -3.765625 -1.75q-2.09375 -0.796875 -4.5 -1.34375q-2.390625 -0.546875 -4.953125 -0.828125q-2.5625 -0.28125 -5.15625 -0.28125q-5.96875 0 -10.65625 1.515625q-4.671875 1.515625 -7.90625 4.25q-3.234375 2.71875 -4.9375 6.515625q-1.6875 3.78125 -1.6875 8.296875q0 4.6875 1.78125 8.609375q1.78125 3.90625 5.046875 6.734375q3.265625 2.828125 7.90625 4.421875q4.640625 1.59375 10.375 1.59375q4.5625 0 8.359375 -1.03125q3.796875 -1.03125 6.609375 -2.921875q2.828125 -1.90625 4.59375 -4.578125q1.78125 -2.6875 2.359375 -6.046875l-22.046875 0l0 -10.53125l33.546875 0l0 0.046875l0.03125 -0.046875q1.015625 4.84375 0.625 9.4375q-0.375 4.578125 -2.09375 8.640625q-1.71875 4.046875 -4.703125 7.4375q-2.984375 3.390625 -7.140625 5.828125q-4.15625 2.4375 -9.453125 3.796875q-5.28125 1.34375 -11.578125 1.34375q-8.796875 0 -15.765625 -2.578125q-6.953125 -2.578125 -11.796875 -7.0625q-4.84375 -4.484375 -7.40625 -10.5q-2.5625 -6.015625 -2.5625 -12.828125zm106.3125 16.5l-27.578125 -47.453125l14.5 0l19.40625 35.875l19.171875 -35.875l14.484375 0l-27.1875 47.375l0 15.703125l-12.796875 0l0 -15.625z" fill-rule="nonzero"/><path fill="#e69138" d="m487.22894 16.938118l3.0625 0l0 13.59375q4.125 0.28125 7.328125 1.5625q3.203125 1.265625 6.765625 4.140625l11.703064 -11.46875l2.09375 2.140625l-11.5468445 11.546875q2.953125 3.828125 4.15625 6.8125q1.5468445 3.875 1.6249695 7.625l13.5625 0l0 2.796875l-13.53125 0q-0.7655945 7.625 -5.7655945 14.0l11.4999695 11.75l-2.296875 2.015625l-11.421814 -11.390625q-3.953125 2.90625 -6.90625 4.0625q-2.9375 1.15625 -7.265625 1.640625l0 13.59375l-3.0625 0l0 -13.59375q-4.515625 -0.609375 -7.609375 -1.859375q-3.09375 -1.25 -6.3125 -3.71875l-11.875 11.21875l-2.046875 -2.0625l11.5 -11.53125q-2.671875 -3.390625 -4.046875 -6.703125q-1.359375 -3.3125 -1.8125 -7.59375l-13.5625 0l0 -2.78125l13.5625 0q0.359375 -4.28125 1.6875 -7.484375q1.34375 -3.203125 4.125 -6.59375l-11.453125 -11.59375l1.9375 -2.296875l11.78125 11.375q4.078125 -2.8125 7.234375 -4.046875q3.171875 -1.234375 6.890625 -1.5625l0 -13.59375zm22.109344 37.203125q0 -8.546875 -6.0780945 -14.59375q-6.0625 -6.0625 -14.625 -6.0625q-8.546875 0 -14.609375 6.0625q-6.046875 6.046875 -6.046875 14.59375q0 8.5625 6.046875 14.640625q6.0625 6.078125 14.609375 6.078125q8.5625 0 14.625 -6.078125q6.0780945 -6.078125 6.0780945 -14.640625z" fill-rule="nonzero"/><path fill="#93c47d" d="m535.5306 19.281868l53.71875 0l0 11.21875l-40.921875 0l0 12.59375l36.25 0l0 10.53125l-36.25 0l0 17.5625l41.78125 0l0 11.171875l-54.578125 0l0 -63.078125zm90.28821 0l13.5625 0l30.515625 63.078125l-13.4375 0l-5.046875 -10.609375l-36.84375 0l-4.890625 10.609375l-13.484375 0l29.625 -63.078125zm20.546875 41.9375l-13.640625 -28.65625l-13.28125 28.65625l26.921875 0zm33.32904 -41.9375l32.09375 0q7.265625 0 12.59375 1.515625q5.328125 1.5 8.828125 4.375q3.515625 2.859375 5.234375 6.984375q1.71875 4.109375 1.71875 9.3125q0 3.515625 -0.859375 6.6875q-0.84375 3.171875 -2.59375 5.84375q-1.75 2.65625 -4.421875 4.734375q-2.65625 2.078125 -6.25 3.4375l13.71875 20.1875l-15.65625 0l-11.875 -17.921875l-0.359375 0l-19.375 -0.03125l0 17.953125l-12.796875 0l0 -63.078125zm32.421875 34.0625q3.625 0 6.34375 -0.84375q2.734375 -0.859375 4.5625 -2.390625q1.84375 -1.53125 2.75 -3.734375q0.90625 -2.203125 0.90625 -4.90625q0 -5.28125 -3.640625 -8.15625q-3.625 -2.890625 -10.921875 -2.890625l-19.625 0l0 22.921875l19.625 0zm43.171448 -34.0625l12.796875 0l0 51.859375l36.6875 0l0 11.21875l-49.484375 0l0 -63.078125zm81.214905 47.453125l-27.578125 -47.453125l14.5 0l19.40625 35.875l19.171875 -35.875l14.484375 0l-27.1875 47.375l0 15.703125l-12.796875 0l0 -15.625z" fill-rule="nonzero"/><path fill="#000000" fill-opacity="0.0" d="m370.10294 84.75618l78.456696 0l0 42.015747l-78.456696 0z" fill-rule="evenodd"/></g></svg>